<?xml version="1.0" standalone="no"?>
<!DOCTYPE svg PUBLIC "-//W3C//DTD SVG 20010904//EN"
 "http://www.w3.org/TR/2001/REC-SVG-20010904/DTD/svg10.dtd">
<svg version="1.0" xmlns="http://www.w3.org/2000/svg"
 width="1000.000000pt" height="1000.000000pt" viewBox="0 0 1000.000000 1000.000000"
 preserveAspectRatio="xMidYMid meet">
<metadata>
Created by potrace 1.15, written by Peter Selinger 2001-2017
</metadata>
<g transform="translate(0.000000,1000.000000) scale(0.100000,-0.100000)"
fill="#000000" stroke="none">
<path d="M4620 8444 c-452 -57 -812 -164 -1175 -349 -200 -103 -279 -150 -465
-280 -176 -123 -482 -405 -622 -575 -472 -570 -732 -1195 -803 -1929 -42 -439
12 -931 149 -1354 120 -368 301 -719 522 -1012 167 -222 410 -476 580 -607 16
-12 31 -25 34 -29 25 -32 357 -257 470 -318 758 -412 1579 -535 2415 -360 148
31 396 103 480 140 11 4 56 22 100 40 126 49 319 145 443 220 63 38 117 69
122 69 5 0 10 3 12 8 2 4 23 20 48 37 54 36 233 169 275 205 178 152 397 378
503 517 20 26 41 53 47 60 5 6 26 34 45 62 19 28 52 74 73 103 22 29 43 62 48
73 5 11 23 40 39 65 48 74 184 347 233 465 137 337 214 659 248 1033 15 170 7
556 -15 717 -76 550 -253 1025 -549 1470 -65 98 -185 263 -207 285 -3 3 -34
39 -70 80 -82 96 -224 238 -320 320 -41 36 -77 67 -80 70 -3 3 -25 21 -50 40
-25 19 -47 37 -50 40 -16 20 -224 160 -330 224 -443 263 -853 401 -1405 471
-149 19 -593 18 -745 -1z m700 -149 c638 -60 1244 -308 1755 -719 141 -113
385 -359 498 -502 102 -129 228 -310 268 -384 13 -25 27 -47 30 -50 11 -10
118 -227 164 -334 329 -760 350 -1668 56 -2451 -77 -205 -151 -360 -259 -542
-34 -58 -165 -255 -187 -281 -8 -9 -37 -46 -65 -82 -125 -158 -313 -348 -492
-498 -408 -340 -951 -593 -1483 -692 -375 -69 -830 -69 -1210 1 -433 80 -845
246 -1215 488 -30 20 -62 41 -70 48 -8 6 -60 45 -115 86 -131 99 -187 147
-325 286 -130 131 -190 196 -240 261 -19 24 -43 53 -53 65 -21 22 -217 313
-217 320 0 3 -17 33 -39 68 -47 76 -114 215 -176 362 -185 438 -278 986 -246
1450 30 434 107 753 276 1150 67 158 292 551 335 585 3 3 17 21 30 40 26 37
123 159 180 225 69 80 277 282 355 345 44 35 82 67 85 70 21 23 321 230 333
230 3 0 46 24 96 54 95 56 370 186 393 186 8 0 18 4 23 9 13 12 270 95 373
121 363 91 765 121 1142 85z"/>
<path d="M4860 8050 c0 -28 3 -30 38 -32 34 -1 51 -3 91 -7 12 -1 13 -30 8
-181 l-6 -180 33 0 33 0 6 107 c4 58 7 139 7 180 0 51 4 73 13 74 6 0 38 0 70
-1 57 -1 57 -1 57 28 0 39 -11 42 -197 42 l-153 0 0 -30z"/>
<path d="M4721 8063 l-24 -5 8 -116 c21 -322 17 -297 49 -300 16 -2 32 0 35 5
11 12 -22 416 -34 418 -5 1 -21 0 -34 -2z"/>
<path d="M5285 8060 c-4 -6 44 -127 81 -206 18 -38 19 -49 9 -145 l-7 -76 26
-7 c15 -4 31 -4 35 -1 5 3 12 41 16 85 l7 81 84 112 c46 61 84 115 84 120 0 4
-15 7 -34 7 -23 0 -38 -7 -50 -22 -73 -101 -98 -133 -105 -136 -6 -2 -45 87
-74 169 -5 17 -64 32 -72 19z"/>
<path d="M4421 8022 c-60 -23 -89 -76 -72 -132 13 -45 46 -71 118 -95 64 -21
93 -47 93 -85 0 -39 -28 -53 -98 -48 l-57 3 -3 -31 c-3 -29 -1 -32 35 -37 99
-16 193 43 193 121 0 56 -33 98 -96 121 -30 12 -58 21 -63 21 -15 0 -61 49
-61 65 0 8 9 24 21 36 17 17 31 20 71 17 47 -3 51 -1 55 21 2 14 -2 28 -9 33
-21 13 -80 8 -127 -10z"/>
<path d="M4055 7935 c-27 -7 -67 -21 -87 -29 l-37 -16 14 -47 c8 -27 37 -115
64 -198 46 -138 52 -150 73 -147 48 5 48 7 22 87 -15 41 -23 82 -20 90 10 28
49 15 120 -42 39 -31 76 -60 81 -64 6 -4 25 -1 44 7 l34 14 -29 22 c-16 12
-55 44 -87 71 -54 47 -57 51 -41 68 28 31 34 83 14 127 -28 62 -81 80 -165 57z
m89 -68 c13 -9 17 -23 14 -52 -3 -42 -18 -55 -80 -70 -25 -6 -28 -4 -38 37 -6
23 -13 50 -16 60 -9 30 86 50 120 25z"/>
<path d="M5963 7870 c-107 -55 -167 -251 -103 -339 29 -42 96 -71 160 -71 44
0 60 5 96 33 89 66 132 220 85 304 -46 81 -156 115 -238 73z m153 -74 c28 -28
34 -41 34 -77 0 -43 -36 -136 -62 -163 -80 -80 -204 -18 -183 91 29 157 131
229 211 149z"/>
<path d="M3758 7816 c-25 -13 -72 -34 -103 -47 -31 -13 -60 -28 -65 -34 -7 -9
139 -356 159 -378 4 -4 52 12 107 36 54 25 107 47 117 51 14 4 17 12 11 28 -3
13 -8 25 -10 27 -5 6 -64 -15 -118 -40 -61 -29 -71 -26 -96 36 -13 31 -20 59
-16 62 4 4 30 17 59 29 58 25 63 32 44 58 -13 18 -16 18 -70 -8 -31 -14 -58
-26 -61 -26 -7 0 -31 47 -40 77 -7 22 13 35 132 82 32 13 37 25 26 55 -8 21
-20 20 -76 -8z"/>
<path d="M6392 7727 c-5 -7 -41 -68 -79 -137 -39 -69 -79 -142 -91 -163 -28
-48 -28 -61 2 -75 29 -13 28 -14 80 81 20 37 43 67 51 67 8 0 37 -13 65 -30
60 -36 67 -36 75 -10 9 28 -4 42 -65 70 -27 13 -50 27 -50 32 0 16 40 88 49
88 5 0 45 -20 90 -45 45 -25 85 -45 90 -45 4 0 13 10 18 23 13 27 16 24 -103
88 -44 23 -89 48 -101 55 -16 10 -23 11 -31 1z"/>
<path d="M3440 7652 c-21 -17 -21 -18 -6 -97 8 -44 21 -108 30 -142 8 -35 11
-65 7 -67 -6 -4 -150 105 -205 156 -11 10 -25 18 -32 18 -14 0 -61 -37 -54
-42 3 -3 34 -26 70 -53 36 -27 67 -52 70 -55 26 -30 214 -160 226 -156 19 7
19 13 -21 225 -49 264 -43 247 -85 213z"/>
<path d="M4795 7470 c-208 -20 -387 -56 -570 -116 -113 -37 -377 -152 -383
-166 -2 -4 -8 -8 -12 -8 -16 0 -212 -119 -260 -157 -8 -6 -38 -29 -66 -50
-115 -86 -294 -251 -374 -348 -267 -318 -437 -651 -534 -1045 -43 -174 -58
-294 -63 -515 -7 -296 25 -526 112 -804 48 -152 59 -181 130 -326 53 -109 174
-317 194 -335 3 -3 22 -27 41 -55 19 -27 39 -55 45 -61 5 -7 25 -31 44 -55 65
-83 296 -304 396 -379 182 -136 328 -221 520 -305 881 -383 1904 -220 2617
418 88 78 198 190 253 257 20 25 44 54 53 65 77 91 212 306 275 435 123 255
211 559 238 824 17 176 7 529 -20 681 -64 352 -180 642 -380 950 -36 55 -67
102 -70 105 -4 3 -33 39 -65 80 -91 116 -296 316 -421 411 -336 256 -739 423
-1165 484 -130 19 -415 27 -535 15z m-67 -352 l-3 -193 -35 -3 c-19 -2 -90
-17 -158 -33 -775 -189 -1362 -856 -1453 -1651 -18 -164 -6 -453 25 -598 46
-215 96 -358 183 -520 40 -76 147 -247 163 -260 3 -3 21 -25 40 -50 19 -25 73
-85 120 -133 47 -49 85 -92 85 -97 0 -17 -216 -300 -230 -300 -16 0 -208 195
-280 285 -226 283 -390 638 -459 991 -182 936 211 1870 1008 2393 124 82 326
183 471 236 134 50 421 120 508 124 16 1 17 -13 15 -191z m636 176 c259 -40
506 -125 751 -257 83 -45 193 -114 205 -127 3 -3 21 -17 40 -30 71 -48 177
-140 269 -231 368 -367 593 -820 662 -1336 95 -713 -144 -1424 -651 -1935 -42
-43 -82 -78 -88 -78 -6 0 -26 21 -43 48 -18 26 -65 90 -104 142 -39 52 -74
101 -79 108 -5 8 14 34 55 75 34 34 85 91 114 127 53 66 145 195 145 203 0 3
17 34 38 68 86 143 177 387 213 571 91 465 8 949 -231 1351 -166 278 -387 504
-660 672 -214 132 -385 194 -720 263 l-35 7 -3 175 c-2 168 0 200 14 200 4 0
52 -7 108 -16z m-634 -1109 l5 -220 250 0 250 0 3 223 c2 211 3 222 22 222 30
0 140 -28 200 -50 30 -12 71 -27 91 -35 111 -41 266 -140 390 -248 330 -290
510 -739 471 -1172 -49 -525 -344 -951 -816 -1176 -115 -54 -308 -115 -328
-103 -4 3 -8 104 -8 225 l0 219 -255 0 -255 0 0 -225 c0 -259 11 -238 -110
-204 -181 50 -357 135 -499 241 -142 105 -319 314 -404 474 -32 61 -94 220
-113 289 -48 174 -59 453 -24 633 96 504 446 910 935 1082 101 35 153 49 175
46 13 -1 16 -36 20 -221z m-807 -2523 c145 -89 167 -104 167 -113 0 -12 -12
-33 -139 -254 -51 -88 -96 -164 -101 -168 -4 -5 -4 -25 2 -44 5 -19 7 -37 4
-41 -5 -4 -288 180 -320 209 -7 6 69 123 126 194 5 6 49 65 99 133 50 67 93
122 95 122 3 0 32 -17 67 -38z m2359 -89 c51 -71 96 -132 101 -138 46 -58 117
-161 117 -169 -1 -12 -74 -66 -89 -66 -5 0 -11 -4 -13 -8 -4 -11 -219 -155
-224 -150 -2 2 1 20 7 39 10 31 8 40 -17 82 -41 67 -116 188 -179 290 -30 48
-55 92 -55 97 0 7 102 75 140 94 8 3 33 18 55 31 22 14 45 25 52 25 6 0 53
-57 105 -127z m-328 -169 c87 -146 155 -269 150 -273 -16 -14 -216 -99 -329
-140 -175 -64 -463 -131 -500 -117 -13 5 -15 50 -15 299 0 224 3 297 13 304 6
6 30 14 52 18 77 13 251 76 345 123 52 27 102 49 110 50 10 1 72 -93 174 -264z
m-1622 207 c123 -58 197 -85 321 -115 l92 -23 0 -304 0 -304 -40 3 c-70 6
-257 50 -368 87 -137 45 -377 149 -415 180 -2 1 11 26 28 54 16 29 30 54 30
56 0 2 34 61 76 132 42 70 92 157 111 193 34 62 52 90 58 90 2 0 50 -22 107
-49z m1717 -612 c12 -16 19 -34 15 -41 -7 -11 -157 -84 -203 -98 -14 -5 -57
-20 -96 -35 -156 -58 -477 -127 -497 -107 -5 5 -8 29 -6 53 l3 43 70 14 c147
27 262 56 363 89 120 39 283 102 296 113 13 12 30 2 55 -31z m-1984 8 c20 -13
200 -83 285 -111 56 -18 242 -63 293 -70 118 -18 107 -11 107 -68 l0 -51 -62
7 c-101 12 -285 53 -400 90 -126 41 -320 122 -330 138 -9 16 43 76 67 77 11 1
29 -5 40 -12z"/>
<path d="M4505 6049 c-76 -39 -174 -97 -185 -109 -3 -4 -15 -13 -27 -21 -130
-89 -293 -308 -361 -486 -60 -155 -76 -241 -75 -413 0 -206 33 -353 118 -520
77 -152 230 -328 370 -425 74 -51 241 -135 269 -135 14 0 16 16 16 130 l0 130
378 -2 377 -3 3 -127 3 -127 72 31 c222 94 443 305 554 529 24 49 43 91 43 94
0 3 -142 5 -315 5 l-315 0 -57 -44 c-252 -192 -575 -176 -796 41 -54 53 -130
170 -121 185 3 4 378 8 833 8 l828 0 12 57 c25 126 7 358 -39 508 -30 100
-126 293 -160 325 -3 3 -18 23 -34 44 -89 119 -263 257 -418 331 -116 56 -113
58 -113 -92 l0 -128 -377 -3 -378 -2 -1 27 c-1 16 0 74 1 131 1 80 -1 102 -12
102 -7 0 -49 -19 -93 -41z m678 -468 c93 -33 167 -80 237 -150 66 -67 126
-162 115 -181 -7 -11 -1067 -15 -1078 -4 -3 4 3 25 15 48 76 149 235 271 402
306 69 15 244 4 309 -19z"/>
<path d="M5666 3505 c-74 -56 -73 -164 3 -312 40 -80 116 -113 185 -81 28 12
66 81 66 119 0 73 -64 224 -111 264 -35 29 -111 34 -143 10z m120 -60 c19 -18
57 -112 74 -181 17 -68 0 -108 -49 -112 -55 -6 -107 60 -137 173 -24 87 -13
131 36 147 19 6 57 -7 76 -27z"/>
<path d="M5403 3383 c-74 -109 -67 -266 16 -353 44 -46 86 -54 152 -29 55 21
76 112 43 182 -32 66 -118 89 -176 47 -15 -11 -29 -16 -32 -12 -7 11 17 102
38 143 13 26 14 34 4 41 -20 12 -25 10 -45 -19z m142 -197 c35 -34 46 -98 23
-129 -22 -29 -71 -32 -102 -5 -33 28 -47 98 -25 124 28 33 76 38 104 10z"/>
<path d="M4300 3460 c-25 -11 -55 -19 -67 -19 -19 -1 -43 -26 -43 -46 0 -3 21
-3 47 1 54 8 55 27 -11 -160 -46 -128 -48 -152 -11 -144 11 2 28 34 50 98 32
91 85 236 100 273 9 22 -5 21 -65 -3z"/>
<path d="M4509 3384 c-56 -36 -83 -127 -55 -182 18 -35 62 -62 101 -62 14 0
25 -4 25 -9 0 -14 -46 -48 -101 -73 -53 -25 -67 -58 -25 -58 78 0 190 91 225
184 33 88 24 152 -27 190 -35 26 -110 31 -143 10z m101 -39 c34 -18 43 -42 34
-90 -8 -45 -39 -75 -76 -75 -96 0 -87 159 10 179 2 1 16 -6 32 -14z"/>
<path d="M3065 7390 c-17 -19 -17 -21 9 -58 14 -21 34 -47 44 -58 26 -28 144
-182 162 -210 8 -13 20 -24 26 -24 18 0 47 38 38 51 -33 54 -244 319 -253 319
-4 0 -16 -9 -26 -20z"/>
<path d="M6895 7387 c-6 -7 -41 -50 -80 -97 -60 -73 -84 -102 -140 -164 -37
-41 -38 -46 -20 -66 10 -11 23 -20 29 -20 6 1 40 37 76 81 111 137 104 142 95
-63 -6 -146 -4 -178 7 -177 7 0 73 72 146 161 129 154 133 160 116 179 -17 19
-44 26 -44 12 0 -5 -15 -24 -33 -45 -19 -20 -51 -57 -72 -82 -21 -25 -41 -44
-44 -40 -3 3 -6 78 -6 166 0 156 -6 185 -30 155z"/>
<path d="M2897 7252 c-10 -10 -17 -23 -17 -29 0 -6 39 -47 86 -92 48 -45 85
-83 83 -86 -3 -2 -76 3 -163 12 -120 11 -161 12 -169 4 -9 -9 10 -33 78 -98
50 -48 118 -114 153 -147 l62 -60 23 22 22 23 -93 92 c-52 50 -89 93 -83 95 5
2 71 -4 145 -12 169 -20 196 -20 196 -2 0 8 -4 16 -9 18 -5 2 -65 57 -133 123
-173 168 -161 159 -181 137z"/>
<path d="M7205 7042 c-22 -20 -72 -64 -110 -97 -151 -130 -159 -139 -144 -163
17 -27 29 -28 55 -4 10 9 79 68 152 131 72 62 132 117 132 120 0 10 -30 51
-38 51 -4 0 -25 -17 -47 -38z"/>
<path d="M2582 6903 l-20 -28 129 -93 c88 -64 131 -101 135 -118 14 -56 -26
-114 -80 -114 -26 0 -60 19 -156 90 -117 85 -125 89 -142 73 -29 -26 -21 -46
30 -80 26 -18 85 -59 131 -92 46 -33 97 -63 112 -66 61 -14 146 57 169 140 18
65 1 105 -63 152 -29 20 -54 40 -57 43 -3 4 -34 26 -69 51 -35 24 -71 50 -81
57 -16 11 -21 9 -38 -15z"/>
<path d="M7305 6906 c-57 -25 -67 -54 -59 -169 7 -108 5 -115 -40 -131 -22 -8
-86 54 -86 84 0 25 -13 32 -45 24 -22 -5 -26 -11 -20 -31 17 -68 98 -143 155
-143 23 0 57 16 76 34 30 31 36 59 29 152 -8 105 -1 124 46 124 29 0 59 -32
74 -78 4 -15 12 -21 22 -18 8 3 19 6 25 6 18 0 0 61 -28 98 -25 32 -77 62
-106 62 -7 -1 -27 -7 -43 -14z"/>
<path d="M7861 5644 c-36 -8 -66 -16 -68 -17 -2 -2 2 -29 8 -61 11 -53 14 -57
38 -54 21 2 26 8 26 32 0 27 4 31 40 38 35 8 42 6 57 -12 28 -35 33 -84 12
-126 -24 -49 -60 -74 -119 -85 -62 -12 -113 2 -150 41 -27 28 -30 38 -30 97 0
59 -2 67 -23 74 -19 7 -24 4 -32 -17 -23 -60 -2 -154 48 -210 57 -66 177 -79
272 -31 64 32 101 81 108 144 6 55 -13 130 -44 171 -28 36 -42 38 -143 16z"/>
<path d="M1967 5623 c-3 -16 -2 -31 1 -34 4 -4 45 -14 92 -24 47 -9 87 -18 89
-20 2 -2 -2 -34 -9 -70 -13 -71 -7 -90 26 -83 13 2 21 16 26 48 16 96 14 93
64 86 25 -3 49 -8 54 -11 4 -3 -1 -48 -13 -100 -11 -53 -18 -97 -16 -99 2 -3
16 -7 30 -11 l26 -7 26 134 c14 73 24 134 22 136 -4 5 -100 25 -235 51 -190
36 -177 35 -183 4z"/>
<path d="M1920 5336 c0 -30 4 -36 40 -50 42 -17 43 -18 41 -81 -3 -81 -9 -92
-54 -107 -37 -11 -42 -17 -45 -45 -2 -22 1 -33 10 -33 23 0 410 118 420 128 6
6 7 15 4 21 -8 13 -386 201 -404 201 -7 0 -12 -14 -12 -34z"/>
<path d="M7775 5240 l-120 -5 0 -30 0 -30 123 3 c76 2 122 0 122 -6 0 -6 -54
-55 -119 -109 -74 -61 -120 -105 -120 -117 -1 -18 6 -19 136 -13 75 4 169 7
210 7 l73 0 0 36 0 37 -125 -7 c-74 -4 -125 -3 -125 3 0 5 24 29 53 52 28 24
54 46 57 49 3 3 25 21 50 41 74 60 90 76 90 88 0 12 -74 12 -305 1z"/>
<path d="M2026 4975 c-57 -22 -103 -76 -112 -131 -16 -107 40 -214 85 -161 8
10 6 23 -9 52 -25 50 -25 79 0 120 48 78 199 88 267 17 29 -29 37 -62 29 -113
-6 -35 -4 -41 16 -48 35 -13 43 3 43 83 0 64 -3 77 -27 109 -50 65 -82 80
-172 84 -54 2 -94 -2 -120 -12z"/>
<path d="M7654 4871 c-2 -2 -4 -19 -4 -36 l0 -32 58 -2 c31 -1 107 -6 167 -11
61 -5 131 -10 156 -10 45 0 46 0 45 33 -1 30 -3 32 -41 35 -190 16 -377 27
-381 23z"/>
<path d="M7681 4714 c-31 -22 -59 -92 -67 -168 -7 -73 -12 -68 91 -85 33 -5
115 -19 183 -31 68 -11 127 -18 132 -15 6 4 10 19 10 34 0 28 -2 29 -81 41
-126 20 -120 54 22 115 88 38 94 42 100 75 4 19 6 37 4 39 -2 2 -26 -7 -52
-19 -83 -39 -134 -60 -148 -60 -7 0 -18 13 -24 28 -23 56 -118 82 -170 46z
m112 -68 c12 -9 17 -27 17 -57 0 -62 -9 -72 -56 -64 -77 13 -77 13 -71 57 3
22 13 48 23 59 20 22 61 24 87 5z"/>
<path d="M2290 4653 c-163 -28 -250 -47 -277 -60 -69 -32 -83 -148 -28 -232
42 -62 71 -68 223 -41 208 35 198 31 194 65 -2 17 -5 31 -7 33 -2 2 -59 -6
-127 -18 -200 -35 -191 -35 -222 -9 -39 34 -45 87 -15 123 25 28 53 35 257 67
l73 12 -3 31 c-3 33 -16 38 -68 29z"/>
<path d="M7585 4383 c-29 -99 -45 -163 -45 -182 0 -19 2 -20 242 -86 71 -19
136 -35 146 -35 14 0 23 22 46 114 30 120 30 146 -3 146 -15 0 -23 -10 -31
-42 -25 -96 -34 -123 -41 -132 -9 -10 -106 13 -119 29 -6 7 -3 33 7 69 14 50
14 59 2 67 -27 18 -43 4 -57 -51 -7 -30 -17 -59 -21 -63 -10 -10 -87 9 -96 23
-5 8 22 118 40 162 4 11 0 20 -14 27 -33 18 -39 13 -56 -46z"/>
<path d="M2365 4308 c-159 -55 -341 -120 -344 -123 -4 -5 66 -215 78 -234 8
-12 15 -13 35 -3 l25 11 -30 82 c-16 45 -28 88 -25 95 3 7 54 28 114 48 126
41 222 76 222 81 0 2 -5 16 -12 30 -12 27 -18 29 -63 13z"/>
<path d="M7511 4133 c-22 -42 -81 -208 -79 -221 3 -16 363 -156 382 -149 7 3
21 27 30 54 10 26 29 77 43 111 13 35 23 65 21 67 -2 1 -13 8 -25 14 -22 11
-24 8 -47 -42 -13 -29 -29 -70 -35 -90 -7 -20 -17 -37 -21 -37 -14 0 -120 48
-120 55 0 3 4 13 9 23 24 48 41 94 36 101 -2 5 -14 11 -26 14 -17 5 -25 -4
-49 -59 -16 -35 -32 -64 -34 -64 -19 0 -86 34 -86 44 0 6 14 47 31 91 28 75
29 80 13 92 -24 17 -32 16 -43 -4z"/>
<path d="M2443 4099 c-8 -8 -4 -26 13 -65 29 -67 30 -71 2 -80 -13 -4 -54 -21
-93 -39 -38 -17 -100 -45 -137 -61 -70 -29 -80 -44 -55 -78 12 -16 21 -13 137
39 69 31 138 63 154 71 16 8 32 14 37 14 11 0 47 -64 60 -109 11 -38 10 -42
-41 -130 -50 -87 -56 -93 -126 -132 -41 -22 -74 -43 -74 -47 0 -4 9 -18 19
-31 l19 -25 66 42 67 42 145 0 c154 0 160 2 128 49 -16 23 -20 23 -115 16 -80
-5 -99 -4 -99 7 0 7 20 46 45 86 25 40 45 79 45 88 0 9 -15 49 -34 88 -18 39
-53 115 -76 169 -43 96 -60 113 -87 86z"/>
<path d="M7392 3849 c-17 -27 -15 -28 89 -89 115 -67 115 -67 109 -73 -3 -3
-71 -15 -151 -26 -81 -11 -154 -23 -163 -27 -29 -11 -17 -28 42 -60 31 -17
113 -64 181 -103 68 -40 127 -69 131 -64 4 4 11 18 14 29 6 19 -6 29 -89 78
-53 31 -100 56 -106 56 -5 0 -9 6 -9 13 0 9 43 18 153 31 148 18 193 29 183
45 -3 4 -42 29 -88 56 -46 26 -110 64 -143 84 -66 39 -126 71 -135 71 -3 0
-11 -10 -18 -21z"/>
<path d="M7212 3538 c-25 -25 -10 -46 76 -106 48 -33 112 -79 142 -101 30 -22
67 -47 82 -56 25 -14 28 -14 42 7 9 12 16 25 16 29 0 3 -28 26 -62 50 -35 23
-65 46 -68 49 -3 4 -25 20 -50 35 -25 16 -68 46 -96 67 -55 41 -64 44 -82 26z"/>
<path d="M7119 3398 c-89 -54 -126 -176 -80 -267 34 -65 111 -123 182 -136
102 -19 207 67 234 192 6 30 3 34 -70 89 l-76 58 -24 -30 c-44 -54 -50 -71
-31 -90 16 -15 19 -15 41 6 l24 22 30 -22 c53 -37 36 -106 -35 -140 -53 -26
-97 -20 -154 21 -49 36 -71 68 -76 116 -7 50 21 102 67 128 30 17 35 24 28 41
-12 33 -22 35 -60 12z"/>
<path d="M2765 3310 c-87 -47 -155 -137 -155 -205 0 -112 118 -199 232 -170
42 10 115 58 146 95 72 85 67 183 -12 260 -33 31 -43 35 -104 38 -54 3 -75 -1
-107 -18z m168 -62 c32 -29 46 -75 36 -114 -15 -53 -131 -144 -184 -144 -25 0
-72 27 -89 52 -34 48 -10 121 56 171 81 62 139 73 181 35z"/>
<path d="M6898 3156 c-10 -7 -18 -17 -18 -22 1 -5 37 -47 80 -94 44 -47 80
-89 80 -94 0 -4 -10 -6 -22 -3 -75 17 -291 40 -302 31 -73 -53 -144 -105 -185
-134 -47 -33 -62 -54 -43 -62 5 -1 28 -32 52 -68 24 -36 46 -67 50 -70 3 -3
28 -39 55 -80 75 -112 74 -112 115 -79 14 11 58 42 98 70 39 27 72 53 72 57 0
5 -6 17 -14 27 -13 18 -17 17 -89 -33 -41 -29 -80 -52 -85 -52 -5 0 -25 23
-43 51 l-33 52 25 21 c13 11 37 30 53 42 22 16 27 25 22 42 -4 12 -12 22 -17
22 -12 0 -101 -59 -110 -73 -6 -8 -70 69 -69 82 1 7 105 81 132 95 10 5 18 15
18 23 0 24 24 14 58 -24 18 -21 74 -80 124 -131 l91 -92 24 22 23 22 -39 40
c-95 99 -131 139 -131 145 0 8 156 -10 263 -30 81 -14 93 -1 46 49 -135 142
-253 262 -258 262 -3 0 -14 -7 -23 -14z"/>
<path d="M3048 3038 c-41 -46 -92 -103 -114 -128 -21 -25 -41 -47 -44 -50 -3
-3 -15 -17 -28 -31 l-22 -25 24 -23 24 -22 40 43 c21 24 51 55 64 71 14 15 29
27 34 27 5 -1 29 -21 54 -45 25 -25 48 -45 51 -45 3 0 13 8 22 18 16 18 14 21
-33 66 -27 26 -50 51 -50 56 0 14 51 70 63 70 7 0 44 -29 82 -64 65 -59 71
-63 88 -49 23 21 22 39 -3 56 -19 13 -66 55 -146 129 l-31 29 -75 -83z"/>
<path d="M3426 2723 c-36 -54 -87 -131 -115 -172 -28 -40 -49 -76 -46 -80 2
-4 49 -38 105 -76 92 -63 102 -67 117 -53 24 24 12 40 -66 92 l-72 47 18 30
c10 16 27 41 39 56 l22 27 58 -38 c54 -36 58 -37 71 -20 7 10 13 21 13 25 0 4
-25 23 -55 44 -30 20 -55 38 -55 41 0 8 52 84 58 84 3 0 41 -23 85 -52 76 -50
80 -51 93 -33 8 10 14 22 14 26 0 7 -204 149 -214 149 -3 0 -34 -44 -70 -97z"/>
<path d="M6239 2671 c-57 -18 -93 -45 -125 -95 -27 -43 -25 -147 5 -206 47
-91 139 -150 208 -134 48 12 99 42 127 74 33 39 33 54 1 68 -22 10 -27 9 -32
-6 -18 -47 -93 -83 -143 -67 -52 16 -119 116 -120 178 0 52 25 93 72 116 24
11 52 21 62 21 13 0 17 7 14 28 -3 30 -24 37 -69 23z"/>
<path d="M3733 2648 c-22 -36 -173 -342 -173 -352 0 -12 197 -116 218 -116 10
0 32 30 32 43 0 2 -38 23 -85 46 l-85 42 81 160 c75 151 79 162 62 175 -23 17
-40 18 -50 2z"/>
<path d="M3966 2493 c-8 -27 -37 -113 -65 -193 -41 -115 -48 -147 -38 -156 6
-7 61 -28 122 -48 82 -27 111 -33 117 -23 20 31 7 44 -73 72 -44 15 -83 33
-85 40 -3 7 2 36 12 65 19 57 16 57 112 30 47 -14 47 -14 56 17 6 19 0 23 -59
43 -36 12 -65 27 -65 35 0 19 29 85 38 85 8 0 136 -42 163 -54 11 -5 19 1 28
20 6 15 10 29 7 31 -7 7 -229 83 -243 83 -7 0 -19 -21 -27 -47z"/>
<path d="M5943 2528 c-25 -12 -29 -1 70 -238 59 -142 66 -155 88 -152 13 1 27
6 32 11 10 10 -143 391 -157 390 -6 0 -21 -5 -33 -11z"/>
<path d="M5815 2481 c-3 -6 4 -43 16 -83 38 -132 42 -149 36 -154 -5 -6 -60
30 -210 138 -75 54 -87 45 -59 -49 11 -37 35 -122 53 -188 18 -66 37 -125 42
-132 10 -14 57 3 57 21 0 6 -14 58 -30 115 -17 57 -30 108 -30 113 0 17 20 4
147 -91 125 -94 160 -110 147 -68 -24 74 -104 363 -104 374 0 15 -56 18 -65 4z"/>
<path d="M4330 2409 c-36 -15 -79 -58 -103 -104 -17 -32 -22 -58 -22 -125 0
-75 3 -89 24 -118 36 -47 67 -63 131 -69 72 -7 110 2 110 25 0 33 -14 42 -48
33 -41 -12 -92 2 -122 34 -50 53 -34 179 31 241 26 25 38 29 84 28 38 0 60 -6
74 -18 16 -15 24 -16 35 -7 8 7 17 8 20 3 3 -5 33 -12 67 -15 33 -3 62 -7 65
-9 2 -3 -6 -82 -18 -177 -23 -185 -21 -195 27 -189 18 3 22 17 38 158 26 223
16 202 90 194 34 -3 67 -11 72 -16 6 -5 12 -81 13 -171 2 -89 8 -166 13 -172
13 -13 58 -14 61 0 1 5 2 46 2 90 1 78 2 80 27 83 22 3 33 -8 83 -83 31 -47
63 -85 69 -86 18 -2 62 3 66 7 2 1 -10 20 -26 41 -16 21 -45 60 -63 87 l-33
49 25 21 c49 40 62 100 34 154 -25 49 -56 57 -195 55 -73 -2 -173 3 -236 12
-60 9 -128 16 -150 16 -22 1 -56 8 -75 17 -43 19 -136 26 -170 11z m728 -120
c34 -12 47 -37 38 -74 -8 -30 -29 -42 -81 -47 l-40 -3 -5 58 c-3 32 -1 62 4
67 13 13 46 13 84 -1z"/>
<path d="M5345 2382 c-115 -38 -154 -193 -85 -337 72 -150 293 -110 331 59 22
101 -16 213 -90 263 -34 23 -108 30 -156 15z m110 -62 c58 -22 91 -191 50
-254 -37 -56 -119 -71 -158 -28 -63 70 -63 244 0 281 23 13 74 14 108 1z"/>
</g>
</svg>
