<?xml version="1.0" encoding="UTF-8"?>
<svg xmlns="http://www.w3.org/2000/svg" xmlns:xlink="http://www.w3.org/1999/xlink" width="100pt" height="100pt" viewBox="0 0 100 100" version="1.1">
<g id="surface1">
<path style=" stroke:none;fill-rule:nonzero;fill:rgb(84.705882%,83.921569%,84.313725%);fill-opacity:1;" d="M 96.195312 64.816406 L 3.929688 64.816406 C 2.84375 64.816406 1.964844 63.9375 1.964844 62.851562 L 1.964844 2.75 C 1.964844 1.664062 2.84375 0.785156 3.929688 0.785156 L 96.195312 0.785156 C 97.28125 0.785156 98.160156 1.664062 98.160156 2.75 L 98.160156 62.851562 C 98.160156 63.9375 97.28125 64.816406 96.195312 64.816406 Z M 96.195312 64.816406 "/>
<path style=" stroke:none;fill-rule:nonzero;fill:rgb(33.72549%,75.686275%,70.196078%);fill-opacity:1;" d="M 93.050781 7.863281 L 93.050781 57.742188 C 93.050781 58.828125 92.171875 59.710938 91.085938 59.710938 L 9.039062 59.710938 C 7.957031 59.710938 7.074219 58.828125 7.074219 57.742188 L 7.074219 7.863281 C 7.074219 6.777344 7.957031 5.894531 9.039062 5.894531 L 91.085938 5.894531 C 92.171875 5.894531 93.050781 6.777344 93.050781 7.863281 Z M 93.050781 7.863281 "/>
<path style=" stroke:none;fill-rule:nonzero;fill:rgb(48.235294%,93.72549%,89.411765%);fill-opacity:1;" d="M 93.050781 7.863281 L 93.050781 57.742188 C 93.050781 58.828125 92.171875 59.710938 91.085938 59.710938 L 17.589844 59.710938 C 16.503906 59.710938 15.625 58.828125 15.625 57.742188 L 15.625 7.863281 C 15.625 6.777344 16.503906 5.894531 17.589844 5.894531 L 91.085938 5.894531 C 92.171875 5.894531 93.050781 6.777344 93.050781 7.863281 Z M 93.050781 7.863281 "/>
<path style=" stroke:none;fill-rule:nonzero;fill:rgb(84.705882%,83.921569%,84.313725%);fill-opacity:1;" d="M 44.625 64.820312 L 55.5 64.820312 L 55.5 90.734375 L 44.625 90.734375 Z M 44.625 64.820312 "/>
<path style=" stroke:none;fill-rule:nonzero;fill:rgb(100%,100%,100%);fill-opacity:1;" d="M 51.277344 64.820312 L 55.5 64.820312 L 55.5 90.734375 L 51.277344 90.734375 Z M 51.277344 64.820312 "/>
<path style=" stroke:none;fill-rule:nonzero;fill:rgb(84.705882%,83.921569%,84.313725%);fill-opacity:1;" d="M 75.089844 92.699219 L 75.089844 97.289062 C 75.089844 98.371094 74.210938 99.253906 73.125 99.253906 L 27 99.253906 C 25.914062 99.253906 25.035156 98.371094 25.035156 97.289062 L 25.035156 92.699219 C 25.035156 91.617188 25.914062 90.734375 27 90.734375 L 73.125 90.734375 C 74.210938 90.734375 75.089844 91.617188 75.089844 92.699219 Z M 75.089844 92.699219 "/>
<path style=" stroke:none;fill-rule:nonzero;fill:rgb(100%,100%,100%);fill-opacity:1;" d="M 75.089844 92.699219 L 75.089844 97.289062 C 75.089844 98.371094 74.210938 99.253906 73.125 99.253906 L 33.289062 99.253906 C 32.203125 99.253906 31.324219 98.371094 31.324219 97.289062 L 31.324219 92.699219 C 31.324219 91.617188 32.203125 90.734375 33.289062 90.734375 L 73.125 90.734375 C 74.210938 90.734375 75.089844 91.617188 75.089844 92.699219 Z M 75.089844 92.699219 "/>
<path style=" stroke:none;fill-rule:nonzero;fill:rgb(97.254902%,32.156863%,32.156863%);fill-opacity:1;" d="M 62.050781 55.417969 L 13.992188 55.417969 C 12.90625 55.417969 12.027344 54.535156 12.027344 53.453125 L 12.027344 12.152344 C 12.027344 11.066406 12.90625 10.1875 13.992188 10.1875 L 62.050781 10.1875 C 63.136719 10.1875 64.015625 11.066406 64.015625 12.152344 L 64.015625 53.453125 C 64.015625 54.535156 63.136719 55.417969 62.050781 55.417969 Z M 62.050781 55.417969 "/>
<path style=" stroke:none;fill-rule:nonzero;fill:rgb(84.705882%,83.921569%,84.313725%);fill-opacity:1;" d="M 64.015625 17.589844 L 64.015625 53.453125 C 64.015625 54.535156 63.136719 55.417969 62.050781 55.417969 L 13.992188 55.417969 C 12.910156 55.417969 12.027344 54.535156 12.027344 53.453125 L 12.027344 12.152344 C 12.027344 11.070312 12.910156 10.1875 13.992188 10.1875 L 25.699219 10.1875 L 31.070312 16.859375 C 31.441406 17.324219 32.003906 17.589844 32.597656 17.589844 Z M 64.015625 17.589844 "/>
<path style=" stroke:none;fill-rule:nonzero;fill:rgb(100%,100%,100%);fill-opacity:1;" d="M 64.015625 17.589844 L 64.015625 53.453125 C 64.015625 54.535156 63.136719 55.417969 62.050781 55.417969 L 15.625 55.417969 L 15.625 10.1875 L 25.699219 10.1875 L 31.070312 16.859375 C 31.441406 17.324219 32.003906 17.589844 32.597656 17.589844 Z M 64.015625 17.589844 "/>
<path style=" stroke:none;fill-rule:nonzero;fill:rgb(97.254902%,32.156863%,32.156863%);fill-opacity:1;" d="M 56.5625 34.140625 L 18.875 34.140625 C 17.789062 34.140625 16.910156 33.261719 16.910156 32.175781 L 16.910156 25.519531 C 16.910156 24.433594 17.789062 23.554688 18.875 23.554688 L 56.5625 23.554688 C 57.648438 23.554688 58.527344 24.433594 58.527344 25.519531 L 58.527344 32.175781 C 58.527344 33.261719 57.648438 34.140625 56.5625 34.140625 Z M 56.5625 34.140625 "/>
<path style=" stroke:none;fill-rule:nonzero;fill:rgb(25.098039%,76.862745%,87.45098%);fill-opacity:1;" d="M 34.351562 50.019531 L 18.875 50.019531 C 17.789062 50.019531 16.910156 49.140625 16.910156 48.054688 L 16.910156 39.128906 C 16.910156 38.042969 17.789062 37.164062 18.875 37.164062 L 34.351562 37.164062 C 35.4375 37.164062 36.320312 38.042969 36.320312 39.128906 L 36.320312 48.054688 C 36.316406 49.140625 35.4375 50.019531 34.351562 50.019531 Z M 34.351562 50.019531 "/>
<path style=" stroke:none;fill-rule:nonzero;fill:rgb(25.098039%,76.862745%,87.45098%);fill-opacity:1;" d="M 56.5625 41.96875 L 41.96875 41.96875 C 40.882812 41.96875 40.003906 41.085938 40.003906 40.003906 L 40.003906 39.128906 C 40.003906 38.042969 40.882812 37.164062 41.96875 37.164062 L 56.5625 37.164062 C 57.648438 37.164062 58.527344 38.042969 58.527344 39.128906 L 58.527344 40.003906 C 58.527344 41.085938 57.648438 41.96875 56.5625 41.96875 Z M 56.5625 41.96875 "/>
<path style=" stroke:none;fill-rule:nonzero;fill:rgb(25.098039%,76.862745%,87.45098%);fill-opacity:1;" d="M 56.5625 50.019531 L 41.96875 50.019531 C 40.882812 50.019531 40.003906 49.140625 40.003906 48.054688 L 40.003906 47.179688 C 40.003906 46.097656 40.882812 45.214844 41.96875 45.214844 L 56.5625 45.214844 C 57.648438 45.214844 58.527344 46.097656 58.527344 47.179688 L 58.527344 48.054688 C 58.527344 49.140625 57.648438 50.019531 56.5625 50.019531 Z M 56.5625 50.019531 "/>
<path style=" stroke:none;fill-rule:nonzero;fill:rgb(10.980392%,52.54902%,55.686275%);fill-opacity:1;" d="M 98.160156 50.210938 L 98.160156 95.324219 C 98.160156 97.496094 96.398438 99.253906 94.230469 99.253906 L 72.726562 99.253906 C 70.558594 99.253906 68.796875 97.496094 68.796875 95.324219 L 68.796875 50.210938 C 68.796875 48.039062 70.558594 46.28125 72.726562 46.28125 L 94.230469 46.28125 C 96.398438 46.28125 98.160156 48.039062 98.160156 50.210938 Z M 98.160156 50.210938 "/>
<path style=" stroke:none;fill-rule:nonzero;fill:rgb(25.098039%,76.862745%,87.45098%);fill-opacity:1;" d="M 98.160156 50.210938 L 98.160156 95.324219 C 98.160156 97.496094 96.398438 99.253906 94.230469 99.253906 L 78.132812 99.253906 C 75.964844 99.253906 74.203125 97.496094 74.203125 95.324219 L 74.203125 50.210938 C 74.203125 48.039062 75.964844 46.28125 78.132812 46.28125 L 94.230469 46.28125 C 96.398438 46.28125 98.160156 48.039062 98.160156 50.210938 Z M 98.160156 50.210938 "/>
<path style=" stroke:none;fill-rule:nonzero;fill:rgb(84.705882%,83.921569%,84.313725%);fill-opacity:1;" d="M 68.796875 55.273438 L 98.160156 55.273438 L 98.160156 90.257812 L 68.796875 90.257812 Z M 68.796875 55.273438 "/>
<path style=" stroke:none;fill-rule:nonzero;fill:rgb(100%,100%,100%);fill-opacity:1;" d="M 74.203125 55.273438 L 98.160156 55.273438 L 98.160156 90.257812 L 74.203125 90.257812 Z M 74.203125 55.273438 "/>
<path style=" stroke:none;fill-rule:nonzero;fill:rgb(84.313725%,21.568627%,20.784314%);fill-opacity:1;" d="M 94.929688 61.042969 L 94.929688 68.117188 C 94.929688 69.203125 94.046875 70.082031 92.964844 70.082031 L 73.996094 70.082031 C 72.910156 70.082031 72.03125 69.203125 72.03125 68.117188 L 72.03125 61.042969 C 72.03125 59.957031 72.910156 59.074219 73.996094 59.074219 L 92.964844 59.074219 C 94.046875 59.074219 94.929688 59.957031 94.929688 61.042969 Z M 94.929688 61.042969 "/>
<path style=" stroke:none;fill-rule:nonzero;fill:rgb(97.254902%,32.156863%,32.156863%);fill-opacity:1;" d="M 94.929688 61.042969 L 94.929688 68.117188 C 94.929688 69.203125 94.046875 70.082031 92.964844 70.082031 L 74.203125 70.082031 L 74.203125 59.074219 L 92.964844 59.074219 C 94.046875 59.074219 94.929688 59.957031 94.929688 61.042969 Z M 94.929688 61.042969 "/>
<path style=" stroke:none;fill-rule:nonzero;fill:rgb(10.980392%,52.54902%,55.686275%);fill-opacity:1;" d="M 83.085938 75.191406 L 83.085938 84.492188 C 83.085938 85.578125 82.207031 86.457031 81.121094 86.457031 L 73.996094 86.457031 C 72.910156 86.457031 72.03125 85.578125 72.03125 84.492188 L 72.03125 75.191406 C 72.03125 74.109375 72.910156 73.226562 73.996094 73.226562 L 81.121094 73.226562 C 82.207031 73.226562 83.085938 74.109375 83.085938 75.191406 Z M 83.085938 75.191406 "/>
<path style=" stroke:none;fill-rule:nonzero;fill:rgb(25.098039%,76.862745%,87.45098%);fill-opacity:1;" d="M 83.085938 75.191406 L 83.085938 84.492188 C 83.085938 85.578125 82.207031 86.457031 81.121094 86.457031 L 74.203125 86.457031 L 74.203125 73.226562 L 81.121094 73.226562 C 82.207031 73.226562 83.085938 74.109375 83.085938 75.191406 Z M 83.085938 75.191406 "/>
<path style=" stroke:none;fill-rule:nonzero;fill:rgb(25.098039%,76.862745%,87.45098%);fill-opacity:1;" d="M 92.960938 78.464844 L 88.328125 78.464844 C 87.242188 78.464844 86.359375 77.585938 86.359375 76.5 L 86.359375 75.191406 C 86.359375 74.105469 87.242188 73.226562 88.328125 73.226562 L 92.960938 73.226562 C 94.046875 73.226562 94.925781 74.105469 94.925781 75.191406 L 94.925781 76.5 C 94.925781 77.585938 94.046875 78.464844 92.960938 78.464844 Z M 92.960938 78.464844 "/>
<path style=" stroke:none;fill-rule:nonzero;fill:rgb(25.098039%,76.862745%,87.45098%);fill-opacity:1;" d="M 92.960938 86.460938 L 88.328125 86.460938 C 87.242188 86.460938 86.359375 85.578125 86.359375 84.496094 L 86.359375 83.183594 C 86.359375 82.097656 87.242188 81.21875 88.328125 81.21875 L 92.960938 81.21875 C 94.046875 81.21875 94.925781 82.097656 94.925781 83.183594 L 94.925781 84.496094 C 94.925781 85.578125 94.046875 86.460938 92.960938 86.460938 Z M 92.960938 86.460938 "/>
<path style=" stroke:none;fill-rule:nonzero;fill:rgb(100%,100%,100%);fill-opacity:1;" d="M 80.046875 50.949219 C 80.046875 51.765625 79.386719 52.425781 78.570312 52.425781 C 77.757812 52.425781 77.097656 51.765625 77.097656 50.949219 C 77.097656 50.136719 77.757812 49.476562 78.570312 49.476562 C 79.386719 49.476562 80.046875 50.136719 80.046875 50.949219 Z M 80.046875 50.949219 "/>
<path style=" stroke:none;fill-rule:nonzero;fill:rgb(84.705882%,83.921569%,84.313725%);fill-opacity:1;" d="M 87.3125 95 C 87.3125 96.089844 86.425781 96.964844 85.34375 96.964844 L 81.609375 96.964844 C 80.527344 96.964844 79.644531 96.085938 79.644531 95 C 79.644531 93.910156 80.53125 93.035156 81.609375 93.035156 L 85.34375 93.035156 C 86.429688 93.035156 87.3125 93.914062 87.3125 95 Z M 87.3125 95 "/>
<path style=" stroke:none;fill-rule:nonzero;fill:rgb(100%,100%,100%);fill-opacity:1;" d="M 87.3125 95 C 87.3125 96.089844 86.425781 96.964844 85.34375 96.964844 L 83.644531 96.964844 C 82.558594 96.964844 81.679688 96.085938 81.679688 95 C 81.679688 93.917969 82.558594 93.035156 83.644531 93.035156 L 85.34375 93.035156 C 86.429688 93.035156 87.3125 93.914062 87.3125 95 Z M 87.3125 95 "/>
<path style=" stroke:none;fill-rule:nonzero;fill:rgb(100%,100%,100%);fill-opacity:1;" d="M 55.753906 13.953125 C 55.753906 14.757812 55.105469 15.40625 54.300781 15.40625 C 53.5 15.40625 52.851562 14.757812 52.851562 13.953125 C 52.851562 13.152344 53.5 12.503906 54.300781 12.503906 C 55.105469 12.503906 55.753906 13.152344 55.753906 13.953125 Z M 55.753906 13.953125 "/>
<path style=" stroke:none;fill-rule:nonzero;fill:rgb(100%,100%,100%);fill-opacity:1;" d="M 61.066406 13.953125 C 61.066406 14.757812 60.417969 15.40625 59.613281 15.40625 C 58.8125 15.40625 58.164062 14.757812 58.164062 13.953125 C 58.164062 13.152344 58.8125 12.503906 59.613281 12.503906 C 60.417969 12.503906 61.066406 13.152344 61.066406 13.953125 Z M 61.066406 13.953125 "/>
<path style=" stroke:none;fill-rule:nonzero;fill:rgb(28.627451%,7.45098%,32.156863%);fill-opacity:1;" d="M 96.195312 0 L 3.929688 0 C 2.414062 0 1.179688 1.234375 1.179688 2.75 L 1.179688 62.855469 C 1.179688 64.371094 2.414062 65.605469 3.929688 65.605469 L 43.839844 65.605469 L 43.839844 89.949219 L 27 89.949219 C 25.484375 89.949219 24.25 91.183594 24.25 92.699219 L 24.25 97.289062 C 24.25 98.804688 25.484375 100.039062 27 100.039062 L 94.230469 100.039062 C 96.832031 100.039062 98.945312 97.925781 98.945312 95.324219 L 98.945312 90.257812 C 98.945312 89.007812 98.945312 5.582031 98.945312 2.75 C 98.945312 1.234375 97.710938 0 96.195312 0 Z M 2.75 62.855469 L 2.75 2.75 C 2.75 2.101562 3.28125 1.574219 3.929688 1.574219 L 96.195312 1.574219 C 96.84375 1.574219 97.375 2.101562 97.375 2.75 L 97.375 46.703125 C 96.285156 45.71875 95.171875 45.496094 93.835938 45.496094 L 93.835938 7.863281 C 93.835938 6.34375 92.601562 5.109375 91.085938 5.109375 L 9.039062 5.109375 C 7.523438 5.109375 6.289062 6.34375 6.289062 7.863281 L 6.289062 57.742188 C 6.289062 59.261719 7.523438 60.496094 9.039062 60.496094 L 68.011719 60.496094 L 68.011719 64.03125 C 65.710938 64.03125 7.402344 64.03125 3.929688 64.03125 C 3.28125 64.03125 2.75 63.503906 2.75 62.855469 Z M 97.375 89.472656 L 69.582031 89.472656 C 69.582031 85.46875 69.582031 60.007812 69.582031 56.0625 L 97.375 56.0625 Z M 56.285156 89.949219 L 56.285156 65.605469 L 68.011719 65.605469 L 68.011719 89.949219 Z M 92.265625 45.496094 L 72.726562 45.496094 C 70.125 45.496094 68.011719 47.609375 68.011719 50.210938 L 68.011719 58.921875 L 9.039062 58.921875 C 8.390625 58.921875 7.863281 58.394531 7.863281 57.742188 L 7.863281 7.863281 C 7.863281 7.214844 8.390625 6.683594 9.039062 6.683594 L 91.085938 6.683594 C 91.734375 6.683594 92.265625 7.214844 92.265625 7.863281 Z M 69.582031 54.488281 L 69.582031 50.210938 C 69.582031 48.480469 70.996094 47.066406 72.726562 47.066406 L 94.230469 47.066406 C 95.964844 47.066406 97.375 48.480469 97.375 50.210938 L 97.375 54.488281 C 93.878906 54.488281 72.566406 54.488281 69.582031 54.488281 Z M 45.414062 65.605469 L 54.710938 65.605469 L 54.710938 89.949219 L 45.414062 89.949219 Z M 27 98.46875 C 26.351562 98.46875 25.820312 97.9375 25.820312 97.289062 L 25.820312 92.699219 C 25.820312 92.046875 26.351562 91.519531 27 91.519531 L 68.011719 91.519531 L 68.011719 95.324219 C 68.011719 96.527344 68.46875 97.632812 69.21875 98.46875 Z M 94.230469 98.46875 C 91.308594 98.46875 74.839844 98.46875 72.726562 98.46875 C 70.996094 98.46875 69.582031 97.054688 69.582031 95.324219 C 69.582031 91.890625 69.582031 92.578125 69.582031 91.046875 L 97.375 91.046875 L 97.375 95.324219 C 97.375 97.054688 95.964844 98.46875 94.230469 98.46875 Z M 94.230469 98.46875 "/>
<path style=" stroke:none;fill-rule:nonzero;fill:rgb(28.627451%,7.45098%,32.156863%);fill-opacity:1;" d="M 62.050781 9.402344 C 56.359375 9.402344 15.15625 9.402344 13.992188 9.402344 C 12.476562 9.402344 11.242188 10.636719 11.242188 12.152344 L 11.242188 53.453125 C 11.242188 54.96875 12.476562 56.203125 13.992188 56.203125 L 62.050781 56.203125 C 63.570312 56.203125 64.804688 54.96875 64.804688 53.453125 L 64.804688 12.152344 C 64.804688 10.636719 63.570312 9.402344 62.050781 9.402344 Z M 62.050781 10.976562 C 62.699219 10.976562 63.230469 11.5 63.230469 12.152344 L 63.230469 16.804688 L 32.597656 16.804688 C 32.242188 16.804688 31.90625 16.648438 31.683594 16.367188 L 27.339844 10.976562 Z M 63.230469 53.453125 C 63.230469 54.101562 62.699219 54.628906 62.050781 54.628906 L 13.992188 54.628906 C 13.339844 54.628906 12.8125 54.101562 12.8125 53.453125 L 12.8125 12.152344 C 12.8125 11.5 13.339844 10.976562 13.992188 10.976562 L 25.324219 10.976562 L 30.457031 17.351562 C 30.980469 18.003906 31.761719 18.375 32.597656 18.375 L 63.230469 18.375 Z M 63.230469 53.453125 "/>
<path style=" stroke:none;fill-rule:nonzero;fill:rgb(28.627451%,7.45098%,32.156863%);fill-opacity:1;" d="M 16.125 25.519531 L 16.125 32.175781 C 16.125 33.695312 17.359375 34.929688 18.875 34.929688 L 56.566406 34.929688 C 58.082031 34.929688 59.316406 33.695312 59.316406 32.175781 L 59.316406 25.519531 C 59.316406 24 58.082031 22.765625 56.566406 22.765625 L 18.875 22.765625 C 17.359375 22.765625 16.125 24 16.125 25.519531 Z M 57.742188 25.519531 L 57.742188 32.175781 C 57.742188 32.824219 57.214844 33.355469 56.566406 33.355469 L 18.875 33.355469 C 18.222656 33.355469 17.695312 32.824219 17.695312 32.175781 L 17.695312 25.519531 C 17.695312 24.871094 18.222656 24.339844 18.875 24.339844 L 56.566406 24.339844 C 57.214844 24.339844 57.742188 24.871094 57.742188 25.519531 Z M 57.742188 25.519531 "/>
<path style=" stroke:none;fill-rule:nonzero;fill:rgb(28.627451%,7.45098%,32.156863%);fill-opacity:1;" d="M 34.351562 36.375 L 18.875 36.375 C 17.359375 36.375 16.125 37.613281 16.125 39.128906 L 16.125 48.054688 C 16.125 49.570312 17.359375 50.804688 18.875 50.804688 L 34.351562 50.804688 C 35.867188 50.804688 37.101562 49.570312 37.101562 48.054688 L 37.101562 39.128906 C 37.101562 37.613281 35.867188 36.375 34.351562 36.375 Z M 35.53125 48.054688 C 35.53125 48.703125 35.003906 49.234375 34.351562 49.234375 L 18.875 49.234375 C 18.222656 49.234375 17.695312 48.703125 17.695312 48.054688 L 17.695312 39.128906 C 17.695312 38.480469 18.222656 37.949219 18.875 37.949219 L 34.351562 37.949219 C 35.003906 37.949219 35.53125 38.480469 35.53125 39.128906 Z M 35.53125 48.054688 "/>
<path style=" stroke:none;fill-rule:nonzero;fill:rgb(28.627451%,7.45098%,32.156863%);fill-opacity:1;" d="M 56.566406 36.375 L 41.96875 36.375 C 40.453125 36.375 39.21875 37.613281 39.21875 39.128906 L 39.21875 40.003906 C 39.21875 41.523438 40.453125 42.753906 41.96875 42.753906 L 56.566406 42.753906 C 58.082031 42.753906 59.316406 41.523438 59.316406 40.003906 L 59.316406 39.128906 C 59.316406 37.613281 58.082031 36.375 56.566406 36.375 Z M 57.742188 40.003906 C 57.742188 40.652344 57.214844 41.183594 56.566406 41.183594 L 41.96875 41.183594 C 41.316406 41.183594 40.789062 40.652344 40.789062 40.003906 L 40.789062 39.128906 C 40.789062 38.480469 41.316406 37.949219 41.96875 37.949219 L 56.566406 37.949219 C 57.214844 37.949219 57.742188 38.480469 57.742188 39.128906 Z M 57.742188 40.003906 "/>
<path style=" stroke:none;fill-rule:nonzero;fill:rgb(28.627451%,7.45098%,32.156863%);fill-opacity:1;" d="M 56.566406 44.429688 L 41.96875 44.429688 C 40.453125 44.429688 39.21875 45.664062 39.21875 47.179688 L 39.21875 48.054688 C 39.21875 49.570312 40.453125 50.804688 41.96875 50.804688 L 56.566406 50.804688 C 58.082031 50.804688 59.316406 49.570312 59.316406 48.054688 L 59.316406 47.179688 C 59.316406 45.664062 58.082031 44.429688 56.566406 44.429688 Z M 57.742188 48.054688 C 57.742188 48.703125 57.214844 49.234375 56.566406 49.234375 L 41.96875 49.234375 C 41.316406 49.234375 40.789062 48.703125 40.789062 48.054688 L 40.789062 47.179688 C 40.789062 46.527344 41.316406 46.003906 41.96875 46.003906 L 56.566406 46.003906 C 57.214844 46.003906 57.742188 46.527344 57.742188 47.179688 Z M 57.742188 48.054688 "/>
<path style=" stroke:none;fill-rule:nonzero;fill:rgb(28.627451%,7.45098%,32.156863%);fill-opacity:1;" d="M 16.910156 15.625 L 24.179688 15.625 C 24.613281 15.625 24.96875 15.273438 24.96875 14.839844 C 24.96875 14.40625 24.613281 14.050781 24.179688 14.050781 L 16.910156 14.050781 C 16.476562 14.050781 16.125 14.40625 16.125 14.839844 C 16.125 15.273438 16.476562 15.625 16.910156 15.625 Z M 16.910156 15.625 "/>
<path style=" stroke:none;fill-rule:nonzero;fill:rgb(28.627451%,7.45098%,32.156863%);fill-opacity:1;" d="M 92.964844 58.289062 C 90.964844 58.289062 76.035156 58.289062 73.996094 58.289062 C 72.476562 58.289062 71.246094 59.527344 71.246094 61.042969 L 71.246094 68.117188 C 71.246094 69.632812 72.480469 70.867188 73.996094 70.867188 L 92.964844 70.867188 C 94.480469 70.867188 95.714844 69.632812 95.714844 68.117188 C 95.714844 65.472656 95.714844 66.988281 95.714844 61.042969 C 95.714844 59.542969 94.5 58.289062 92.964844 58.289062 Z M 94.144531 68.117188 C 94.144531 68.765625 93.613281 69.296875 92.964844 69.296875 L 73.996094 69.296875 C 73.34375 69.296875 72.820312 68.765625 72.820312 68.117188 C 72.820312 65.472656 72.820312 66.988281 72.820312 61.042969 C 72.820312 60.390625 73.34375 59.863281 73.996094 59.863281 L 92.964844 59.863281 C 93.613281 59.863281 94.144531 60.390625 94.144531 61.042969 Z M 94.144531 68.117188 "/>
<path style=" stroke:none;fill-rule:nonzero;fill:rgb(28.627451%,7.45098%,32.156863%);fill-opacity:1;" d="M 81.121094 72.441406 L 73.996094 72.441406 C 72.480469 72.441406 71.246094 73.675781 71.246094 75.191406 L 71.246094 84.492188 C 71.246094 86.011719 72.480469 87.246094 73.996094 87.246094 L 81.121094 87.246094 C 82.636719 87.246094 83.871094 86.011719 83.871094 84.492188 L 83.871094 75.191406 C 83.871094 73.675781 82.636719 72.441406 81.121094 72.441406 Z M 82.300781 84.492188 C 82.300781 85.144531 81.769531 85.671875 81.121094 85.671875 L 73.996094 85.671875 C 73.34375 85.671875 72.820312 85.144531 72.820312 84.492188 L 72.820312 75.191406 C 72.820312 74.539062 73.34375 74.011719 73.996094 74.011719 L 81.121094 74.011719 C 81.769531 74.011719 82.300781 74.539062 82.300781 75.191406 Z M 82.300781 84.492188 "/>
<path style=" stroke:none;fill-rule:nonzero;fill:rgb(28.627451%,7.45098%,32.156863%);fill-opacity:1;" d="M 92.964844 72.441406 L 88.324219 72.441406 C 86.808594 72.441406 85.574219 73.675781 85.574219 75.191406 L 85.574219 76.5 C 85.574219 78.019531 86.808594 79.253906 88.324219 79.253906 L 92.964844 79.253906 C 94.480469 79.253906 95.714844 78.019531 95.714844 76.5 L 95.714844 75.191406 C 95.714844 73.675781 94.480469 72.441406 92.964844 72.441406 Z M 94.144531 76.5 C 94.144531 77.148438 93.613281 77.679688 92.964844 77.679688 L 88.324219 77.679688 C 87.675781 77.679688 87.144531 77.148438 87.144531 76.5 L 87.144531 75.191406 C 87.144531 74.539062 87.675781 74.011719 88.324219 74.011719 L 92.964844 74.011719 C 93.613281 74.011719 94.144531 74.539062 94.144531 75.191406 Z M 94.144531 76.5 "/>
<path style=" stroke:none;fill-rule:nonzero;fill:rgb(28.627451%,7.45098%,32.156863%);fill-opacity:1;" d="M 92.964844 80.433594 L 88.324219 80.433594 C 86.808594 80.433594 85.574219 81.667969 85.574219 83.183594 L 85.574219 84.492188 C 85.574219 86.011719 86.808594 87.246094 88.324219 87.246094 L 92.964844 87.246094 C 94.480469 87.246094 95.714844 86.011719 95.714844 84.492188 L 95.714844 83.183594 C 95.714844 81.667969 94.480469 80.433594 92.964844 80.433594 Z M 94.144531 84.492188 C 94.144531 85.144531 93.613281 85.671875 92.964844 85.671875 L 88.324219 85.671875 C 87.675781 85.671875 87.144531 85.144531 87.144531 84.492188 L 87.144531 83.183594 C 87.144531 82.535156 87.675781 82.003906 88.324219 82.003906 L 92.964844 82.003906 C 93.613281 82.003906 94.144531 82.535156 94.144531 83.183594 Z M 94.144531 84.492188 "/>
<path style=" stroke:none;fill-rule:nonzero;fill:rgb(28.627451%,7.45098%,32.156863%);fill-opacity:1;" d="M 89.859375 50.164062 L 82.917969 50.164062 C 82.484375 50.164062 82.128906 50.515625 82.128906 50.949219 C 82.128906 51.386719 82.484375 51.738281 82.917969 51.738281 L 89.859375 51.738281 C 90.296875 51.738281 90.648438 51.386719 90.648438 50.949219 C 90.648438 50.515625 90.296875 50.164062 89.859375 50.164062 Z M 89.859375 50.164062 "/>
<path style=" stroke:none;fill-rule:nonzero;fill:rgb(28.627451%,7.45098%,32.156863%);fill-opacity:1;" d="M 78.570312 48.691406 C 77.324219 48.691406 76.308594 49.703125 76.308594 50.949219 C 76.308594 52.195312 77.324219 53.210938 78.570312 53.210938 C 79.816406 53.210938 80.828125 52.195312 80.828125 50.949219 C 80.828125 49.703125 79.816406 48.691406 78.570312 48.691406 Z M 78.570312 51.640625 C 78.191406 51.640625 77.882812 51.328125 77.882812 50.949219 C 77.882812 50.574219 78.191406 50.261719 78.570312 50.261719 C 78.949219 50.261719 79.257812 50.574219 79.257812 50.949219 C 79.257812 51.328125 78.949219 51.640625 78.570312 51.640625 Z M 78.570312 51.640625 "/>
<path style=" stroke:none;fill-rule:nonzero;fill:rgb(28.627451%,7.45098%,32.156863%);fill-opacity:1;" d="M 85.34375 92.25 L 81.609375 92.25 C 80.09375 92.25 78.859375 93.484375 78.859375 95 C 78.859375 96.515625 80.09375 97.75 81.609375 97.75 L 85.34375 97.75 C 86.863281 97.75 88.097656 96.515625 88.097656 95 C 88.097656 93.484375 86.863281 92.25 85.34375 92.25 Z M 85.34375 96.179688 L 81.609375 96.179688 C 80.964844 96.179688 80.433594 95.652344 80.433594 95 C 80.433594 94.351562 80.964844 93.820312 81.609375 93.820312 L 85.34375 93.820312 C 85.996094 93.820312 86.523438 94.351562 86.523438 95 C 86.523438 95.652344 85.996094 96.179688 85.34375 96.179688 Z M 85.34375 96.179688 "/>
<path style=" stroke:none;fill-rule:nonzero;fill:rgb(28.627451%,7.45098%,32.156863%);fill-opacity:1;" d="M 87.636719 33.917969 L 85.121094 36.433594 L 85.121094 27.695312 C 85.121094 25.257812 83.140625 23.277344 80.703125 23.277344 L 72.5 23.277344 L 75.015625 20.761719 C 75.324219 20.453125 75.324219 19.957031 75.015625 19.648438 C 74.710938 19.339844 74.210938 19.339844 73.90625 19.648438 L 70.046875 23.507812 C 69.738281 23.816406 69.742188 24.316406 70.046875 24.621094 L 73.90625 28.480469 C 74.058594 28.632812 74.261719 28.710938 74.460938 28.710938 C 74.664062 28.710938 74.863281 28.632812 75.015625 28.480469 C 75.324219 28.171875 75.324219 27.675781 75.015625 27.367188 L 72.5 24.851562 L 80.707031 24.851562 C 82.273438 24.851562 83.546875 26.125 83.546875 27.695312 L 83.546875 36.4375 L 81.03125 33.917969 C 80.722656 33.613281 80.226562 33.613281 79.917969 33.917969 C 79.613281 34.226562 79.613281 34.722656 79.917969 35.03125 L 83.777344 38.890625 C 84.082031 39.191406 84.578125 39.203125 84.890625 38.890625 L 88.75 35.03125 C 89.058594 34.722656 89.058594 34.226562 88.75 33.917969 C 88.441406 33.609375 87.945312 33.609375 87.636719 33.917969 Z M 87.636719 33.917969 "/>
<path style=" stroke:none;fill-rule:nonzero;fill:rgb(28.627451%,7.45098%,32.156863%);fill-opacity:1;" d="M 54.300781 16.191406 C 55.535156 16.191406 56.539062 15.1875 56.539062 13.953125 C 56.539062 12.71875 55.535156 11.71875 54.300781 11.71875 C 53.066406 11.71875 52.0625 12.71875 52.0625 13.953125 C 52.0625 15.1875 53.066406 16.191406 54.300781 16.191406 Z M 54.300781 13.289062 C 54.667969 13.289062 54.96875 13.589844 54.96875 13.953125 C 54.96875 14.320312 54.667969 14.617188 54.300781 14.617188 C 53.933594 14.617188 53.636719 14.320312 53.636719 13.953125 C 53.636719 13.589844 53.933594 13.289062 54.300781 13.289062 Z M 54.300781 13.289062 "/>
<path style=" stroke:none;fill-rule:nonzero;fill:rgb(28.627451%,7.45098%,32.156863%);fill-opacity:1;" d="M 59.613281 16.191406 C 60.847656 16.191406 61.851562 15.1875 61.851562 13.953125 C 61.851562 12.71875 60.847656 11.71875 59.613281 11.71875 C 58.378906 11.71875 57.378906 12.71875 57.378906 13.953125 C 57.378906 15.1875 58.378906 16.191406 59.613281 16.191406 Z M 59.613281 13.289062 C 59.980469 13.289062 60.277344 13.589844 60.277344 13.953125 C 60.277344 14.320312 59.980469 14.617188 59.613281 14.617188 C 59.25 14.617188 58.949219 14.320312 58.949219 13.953125 C 58.949219 13.589844 59.25 13.289062 59.613281 13.289062 Z M 59.613281 13.289062 "/>
</g>
</svg>
